# xmcd
#
# Track frame offsets:
#	150
#	15773
#	29055
#	41386
#	52059
#	67792
#	78014
#	94392
#	108414
#	120604
#	132268
#	147421
#	159950
#	171609
#	180524
#	194862
#	205923
#	219747
#	235720
#	245030
#	257801
#
# Disc length: 3592 seconds
#
# Revision: 1
# Processed by: cddbd v1.5.2PL0 Copyright (c) Steve Scherf et al.
# Submitted via: audiograbber 1.83.01
#
DISCID=2f0e0615
DTITLE=Benny Goodman - Life Goes To A Party CD1
DYEAR=2005
DGENRE=Instrumental
TTITLE0=Japanese Sandman
TTITLE1=You're A Heavenly Thing
TTITLE2=Always
TTITLE3=Get Rhythm In Your Feet
TTITLE4=Blue Skies
TTITLE5=Dear Old Southland
TTITLE6=Sometime I'm Happy
TTITLE7=King Porter Stomp
TTITLE8=The Devil And The Deep Blue Sea
TTITLE9=Jingle Bells
TTITLE10=Good-Bye
TTITLE11=Madhouse
TTITLE12=Sandman
TTITLE13=Eeny Meeny Miney Mo
TTITLE14=Stompin' At The Savoy
TTITLE15=Goody Goody
TTITLE16=Get Happy
TTITLE17=Christopher Columbus
TTITLE18=I Know That You Know
TTITLE19=Stardust
TTITLE20=The Glory Of Love
EXTD=CD 1 - 4
EXTT0=
EXTT1=
EXTT2=
EXTT3=
EXTT4=
EXTT5=
EXTT6=
EXTT7=
EXTT8=
EXTT9=
EXTT10=
EXTT11=
EXTT12=
EXTT13=
EXTT14=
EXTT15=
EXTT16=
EXTT17=
EXTT18=
EXTT19=
EXTT20=
PLAYORDER=
